<svg width="2330" height="700" xmlns="http://www.w3.org/2000/svg" xmlns:xlink="http://www.w3.org/1999/xlink" xml:space="preserve" overflow="hidden"><defs><clipPath id="clip0"><rect x="815" y="844" width="2330" height="965"/></clipPath></defs><g clip-path="url(#clip0)" transform="translate(-815 -844)"><text font-family="Sitka Banner,Sitka Banner_MSFontService,sans-serif" font-weight="700" font-size="330" transform="matrix(1 0 0 1 1013.98 1514)">SOTA </text><text font-family="Sitka Banner,Sitka Banner_MSFontService,sans-serif" font-style="italic" font-weight="400" font-size="330" transform="matrix(1 0 0 1 1829.81 1514)">Seminar</text><text font-family="Sitka Banner,Sitka Banner_MSFontService,sans-serif" font-style="italic" font-weight="400" font-size="330" transform="matrix(1 0 0 1 2871.38 1514)"> </text><path d="M1169 910C1169 890.67 1184.67 875 1204 875L1204 875C1223.33 875 1239 890.67 1239 910L1239 1232C1239 1251.33 1223.33 1267 1204 1267L1204 1267C1184.67 1267 1169 1251.33 1169 1232Z" fill="#4874CB" fill-rule="evenodd"/><path d="M1287 878.5C1287 859.446 1302.45 844 1321.5 844L1321.5 844C1340.55 844 1356 859.446 1356 878.5L1356 1201.5C1356 1220.55 1340.55 1236 1321.5 1236L1321.5 1236C1302.45 1236 1287 1220.55 1287 1201.5Z" fill="#4874CB" fill-rule="evenodd"/><path d="M1404 932C1404 912.67 1419.67 897 1439 897L1439 897C1458.33 897 1474 912.67 1474 932L1474 1254C1474 1273.33 1458.33 1289 1439 1289L1439 1289C1419.67 1289 1404 1273.33 1404 1254Z" fill="#4874CB" fill-rule="evenodd"/><path d="M1521 932C1521 912.67 1536.67 897 1556 897L1556 897C1575.33 897 1591 912.67 1591 932L1591 1254C1591 1273.33 1575.33 1289 1556 1289L1556 1289C1536.67 1289 1521 1273.33 1521 1254Z" fill="#4874CB" fill-rule="evenodd"/><path d="M1638 894C1638 874.67 1653.67 859 1673 859L1673 859C1692.33 859 1708 874.67 1708 894L1708 1217C1708 1236.33 1692.33 1252 1673 1252L1673 1252C1653.67 1252 1638 1236.33 1638 1217Z" fill="#4874CB" fill-rule="evenodd"/><path d="M1755 932C1755 912.67 1770.67 897 1790 897L1790 897C1809.33 897 1825 912.67 1825 932L1825 1254C1825 1273.33 1809.33 1289 1790 1289L1790 1289C1770.67 1289 1755 1273.33 1755 1254Z" fill="#4874CB" fill-rule="evenodd"/><path d="M1875 899C1875 879.67 1890.67 864 1910 864L1910 864C1929.33 864 1945 879.67 1945 899L1945 1075C1945 1094.33 1929.33 1110 1910 1110L1910 1110C1890.67 1110 1875 1094.33 1875 1075Z" fill="#4874CB" fill-rule="evenodd"/><path d="M1992 897C1992 877.67 2007.67 862 2027 862L2027 862C2046.33 862 2062 877.67 2062 897L2062 1073C2062 1092.33 2046.33 1108 2027 1108L2027 1108C2007.67 1108 1992 1092.33 1992 1073Z" fill="#4874CB" fill-rule="evenodd"/><path d="M2099 987C2099 967.67 2114.67 952 2134 952L2134 952C2153.33 952 2169 967.67 2169 987L2169 1163C2169 1182.33 2153.33 1198 2134 1198L2134 1198C2114.67 1198 2099 1182.33 2099 1163Z" fill="#4874CB" fill-rule="evenodd"/><path d="M2210 989C2210 969.67 2225.67 954 2245 954L2245 954C2264.33 954 2280 969.67 2280 989L2280 1165C2280 1184.33 2264.33 1200 2245 1200L2245 1200C2225.67 1200 2210 1184.33 2210 1165Z" fill="#4874CB" fill-rule="evenodd"/><path d="M2315 892C2315 872.67 2330.67 857 2350 857L2350 857C2369.33 857 2385 872.67 2385 892L2385 1068C2385 1087.33 2369.33 1103 2350 1103L2350 1103C2330.67 1103 2315 1087.33 2315 1068Z" fill="#4874CB" fill-rule="evenodd"/><path d="M2427 888.5C2427 869.446 2442.45 854 2461.5 854L2461.5 854C2480.55 854 2496 869.446 2496 888.5L2496 1065.5C2496 1084.55 2480.55 1100 2461.5 1100L2461.5 1100C2442.45 1100 2427 1084.55 2427 1065.5Z" fill="#4874CB" fill-rule="evenodd"/><path d="M1926 1177.5C1926 1151.82 1946.15 1131 1971 1131 1995.85 1131 2016 1151.82 2016 1177.5 2016 1203.18 1995.85 1224 1971 1224 1946.15 1224 1926 1203.18 1926 1177.5Z" fill="#91ACE0" fill-rule="evenodd"/><path d="M2143 1269C2143 1243.04 2163.37 1222 2188.5 1222 2213.63 1222 2234 1243.04 2234 1269 2234 1294.96 2213.63 1316 2188.5 1316 2163.37 1316 2143 1294.96 2143 1269Z" fill="#91ACE0" fill-rule="evenodd"/><path d="M2359 1159.5C2359 1133.82 2379.37 1113 2404.5 1113 2429.63 1113 2450 1133.82 2450 1159.5 2450 1185.18 2429.63 1206 2404.5 1206 2379.37 1206 2359 1185.18 2359 1159.5Z" fill="#91ACE0" fill-rule="evenodd"/><path d="M2538 939C2538 919.67 2553.67 904 2573 904L2573 904C2592.33 904 2608 919.67 2608 939L2608 1262C2608 1281.33 2592.33 1297 2573 1297L2573 1297C2553.67 1297 2538 1281.33 2538 1262Z" fill="#4874CB" fill-rule="evenodd"/><path d="M2656 907.5C2656 888.446 2671.45 873 2690.5 873L2690.5 873C2709.55 873 2725 888.446 2725 907.5L2725 1230.5C2725 1249.55 2709.55 1265 2690.5 1265L2690.5 1265C2671.45 1265 2656 1249.55 2656 1230.5Z" fill="#4874CB" fill-rule="evenodd"/><path d="M2773 961C2773 941.67 2788.67 926 2808 926L2808 926C2827.33 926 2843 941.67 2843 961L2843 1283C2843 1302.33 2827.33 1318 2808 1318L2808 1318C2788.67 1318 2773 1302.33 2773 1283Z" fill="#4874CB" fill-rule="evenodd"/><path d="M1049 908C1049 888.67 1064.67 873 1084 873L1084 873C1103.33 873 1119 888.67 1119 908L1119 1230C1119 1249.33 1103.33 1265 1084 1265L1084 1265C1064.67 1265 1049 1249.33 1049 1230Z" fill="#4874CB" fill-rule="evenodd"/></g></svg>